AyannaNarrowTamil-ExtraBold.ufo
<glyph name="uni0031" format="1">
  <advance width="279"/>
  <unicode hex="0031"/>
  <outline>
    <contour>
      <point x="19" y="435" type="line"/>
      <point x="19.5" y="555" type="line"/>
      <point x="229" y="609" type="line"/>
      <point x="229" y="609" type="line"/>
      <point x="229" y="0" type="line"/>
      <point x="124" y="0" type="line"/>
      <point x="124" y="464" type="line"/>
    </contour>
  </outline>
</glyph>
<glyph name="uni0032" format="1">
  <advance width="459"/>
  <unicode hex="0032"/>
  <outline>
    <contour>
      <point x="21" y="466" type="line"/>
      <point x="42.8838" y="543"/>
      <point x="116.384" y="614"/>
      <point x="210" y="614" type="curve" smooth="yes"/>
      <point x="343.974" y="614"/>
      <point x="440.525" y="514.618"/>
      <point x="419.792" y="336.006" type="curve" smooth="yes"/>
      <point x="401.76" y="219.427"/>
      <point x="312" y="140"/>
      <point x="242" y="103" type="curve"/>
      <point x="439" y="103" type="line"/>
      <point x="439" y="0" type="line"/>
      <point x="31" y="0" type="line"/>
      <point x="31" y="93" type="line"/>
      <point x="200.764" y="186.977"/>
      <point x="305.438" y="264.999"/>
      <point x="313.956" y="359.18" type="curve" smooth="yes"/>
      <point x="322.005" y="455.591"/>
      <point x="271.102" y="506.447"/>
      <point x="217" y="507" type="curve" smooth="yes"/>
      <point x="145.46" y="507.688"/>
      <point x="121.188" y="451.945"/>
      <point x="112" y="426" type="curve"/>
    </contour>
  </outline>
</glyph>
<glyph name="tml_A" format="1">
  <advance width="825"/>
  <unicode hex="0B85"/>
  <outline>
    <contour>
      <point x="57" y="58" type="curve" smooth="yes"/>
      <point x="56" y="157"/>
      <point x="118" y="219"/>
      <point x="237" y="219" type="curve" smooth="yes"/>
      <point x="678" y="219" type="line"/>
      <point x="678" y="124" type="line"/>
      <point x="233" y="124" type="line" smooth="yes"/>
      <point x="186" y="124"/>
      <point x="163" y="92"/>
      <point x="163" y="55" type="curve" smooth="yes"/>
      <point x="163" y="-12"/>
      <point x="227" y="-49"/>
      <point x="299" y="-49" type="curve" smooth="yes"/>
      <point x="440" y="-49"/>
      <point x="497" y="45"/>
      <point x="498" y="186" type="curve" smooth="yes"/>
      <point x="499" y="324"/>
      <point x="461" y="469"/>
      <point x="361" y="468" type="curve" smooth="yes"/>
      <point x="333" y="468"/>
      <point x="314" y="445"/>
      <point x="314" y="416" type="curve" smooth="yes"/>
      <point x="314" y="383"/>
      <point x="333" y="356"/>
      <point x="362" y="356" type="curve" smooth="yes"/>
      <point x="386" y="356"/>
      <point x="409" y="374"/>
      <point x="409" y="413" type="curve" smooth="yes"/>
      <point x="409" y="453"/>
      <point x="382" y="468"/>
      <point x="362" y="468" type="curve"/>
      <point x="462" y="474" type="line"/>
      <point x="474" y="447"/>
      <point x="479" y="421"/>
      <point x="479" y="398" type="curve" smooth="yes"/>
      <point x="479" y="320"/>
      <point x="435" y="265"/>
      <point x="356" y="265" type="curve" smooth="yes"/>
      <point x="277" y="264"/>
      <point x="218" y="323"/>
      <point x="217" y="410" type="curve" smooth="yes"/>
      <point x="216" y="503"/>
      <point x="279" y="562"/>
      <point x="363" y="561" type="curve" smooth="yes"/>
      <point x="540" y="560"/>
      <point x="600" y="364"/>
      <point x="601" y="190" type="curve" smooth="yes"/>
      <point x="602" y="-11"/>
      <point x="498" y="-144"/>
      <point x="299" y="-144" type="curve" smooth="yes"/>
      <point x="150" y="-144"/>
      <point x="58" y="-53"/>
    </contour>
    <contour>
      <point x="660" y="-116" type="line"/>
      <point x="660" y="545" type="line"/>
      <point x="765" y="545" type="line"/>
      <point x="765" y="-116" type="line"/>
    </contour>
  </outline>
</glyph>
<glyph name="tml_Aa" format="1">
  <advance width="1075"/>
  <unicode hex="0B86"/>
  <outline>
    <contour>
      <point x="508" y="-144" type="curve"/>
      <point x="602" y="-128" type="line"/>
      <point x="618.418" y="-237.866"/>
      <point x="665.957" y="-287.328"/>
      <point x="767" y="-288" type="curve" smooth="yes"/>
      <point x="887.82" y="-288.804"/>
      <point x="925" y="-183.316"/>
      <point x="925" y="-82" type="curve" smooth="yes"/>
      <point x="925" y="-2.73535"/>
      <point x="907.372" y="66"/>
      <point x="848" y="66" type="curve" smooth="yes"/>
      <point x="790.167" y="66"/>
      <point x="765.754" y="33.2021"/>
      <point x="765" y="-24" type="curve"/>
      <point x="690" y="-58" type="line"/>
      <point x="687.726" y="69.6191"/>
      <point x="753.846" y="161"/>
      <point x="848" y="161" type="curve" smooth="yes"/>
      <point x="976.007" y="161"/>
      <point x="1030" y="41.0869"/>
      <point x="1030" y="-82" type="curve" smooth="yes"/>
      <point x="1030" y="-256.989"/>
      <point x="931.462" y="-383.399"/>
      <point x="767" y="-383" type="curve" smooth="yes"/>
      <point x="669.115" y="-382.763"/>
      <point x="528.513" y="-344.154"/>
    </contour>
    <component base="tml_A"/>
  </outline>
</glyph>
<glyph name="tml_I" format="1">
  <advance width="1005"/>
  <unicode hex="0B87"/>
  <outline>
    <contour>
      <point x="43" y="58" type="curve" smooth="yes"/>
      <point x="42" y="273"/>
      <point x="283" y="300"/>
      <point x="441" y="300" type="curve" smooth="yes"/>
      <point x="597" y="300"/>
      <point x="808" y="253"/>
      <point x="808" y="61" type="curve" smooth="yes"/>
      <point x="808" y="-25"/>
      <point x="772" y="-144"/>
      <point x="570" y="-144" type="curve" smooth="yes"/>
      <point x="301" y="-144"/>
      <point x="155" y="153"/>
      <point x="155" y="419" type="curve" smooth="yes"/>
      <point x="155" y="646"/>
      <point x="288" y="787"/>
      <point x="522" y="786" type="curve" smooth="yes"/>
      <point x="812" y="784"/>
      <point x="945" y="573"/>
      <point x="945" y="234" type="curve" smooth="yes"/>
      <point x="945" y="159"/>
      <point x="945" y="-41"/>
      <point x="945" y="-98" type="curve"/>
      <point x="832" y="-97" type="line"/>
      <point x="833" y="-48"/>
      <point x="834" y="165"/>
      <point x="834" y="254" type="curve" smooth="yes"/>
      <point x="833" y="515"/>
      <point x="717" y="678"/>
      <point x="522" y="677" type="curve" smooth="yes"/>
      <point x="357" y="677"/>
      <point x="263" y="595"/>
      <point x="263" y="398" type="curve" smooth="yes"/>
      <point x="263" y="155"/>
      <point x="451" y="-39"/>
      <point x="568" y="-39" type="curve" smooth="yes"/>
      <point x="680" y="-39"/>
      <point x="694" y="23"/>
      <point x="694" y="60" type="curve" smooth="yes"/>
      <point x="694" y="117"/>
      <point x="646" y="189"/>
      <point x="436" y="189" type="curve" smooth="yes"/>
      <point x="245" y="189"/>
      <point x="149" y="154"/>
      <point x="149" y="52" type="curve" smooth="yes"/>
      <point x="149" y="-3"/>
      <point x="186" y="-39"/>
      <point x="265" y="-39" type="curve" smooth="yes"/>
      <point x="394" y="-39"/>
      <point x="576" y="117"/>
      <point x="604" y="307" type="curve" smooth="yes"/>
      <point x="624" y="433"/>
      <point x="596" y="529"/>
      <point x="487" y="528" type="curve" smooth="yes"/>
      <point x="459" y="528"/>
      <point x="440" y="505"/>
      <point x="440" y="476" type="curve" smooth="yes"/>
      <point x="440" y="443"/>
      <point x="459" y="416"/>
      <point x="488" y="416" type="curve" smooth="yes"/>
      <point x="512" y="416"/>
      <point x="535" y="434"/>
      <point x="535" y="473" type="curve" smooth="yes"/>
      <point x="535" y="513"/>
      <point x="508" y="528"/>
      <point x="488" y="528" type="curve"/>
      <point x="588" y="534" type="line"/>
      <point x="600" y="507"/>
      <point x="605" y="481"/>
      <point x="605" y="458" type="curve" smooth="yes"/>
      <point x="605" y="380"/>
      <point x="561" y="326"/>
      <point x="482" y="325" type="curve" smooth="yes"/>
      <point x="403" y="324"/>
      <point x="344" y="383"/>
      <point x="343" y="470" type="curve" smooth="yes"/>
      <point x="342" y="563"/>
      <point x="409" y="622"/>
      <point x="499" y="621" type="curve" smooth="yes"/>
      <point x="662" y="620"/>
      <point x="724" y="456"/>
      <point x="702" y="291" type="curve" smooth="yes"/>
      <point x="665" y="24"/>
      <point x="452" y="-144"/>
      <point x="275" y="-144" type="curve" smooth="yes"/>
      <point x="109" y="-144"/>
      <point x="44" y="-58"/>
    </contour>
  </outline>
</glyph>
<glyph name="tml_Ii" format="1">
  <advance width="612"/>
  <unicode hex="0B88"/>
  <outline>
    <contour>
      <point x="60" y="0" type="line"/>
      <point x="60" y="551" type="line"/>
      <point x="587" y="551" type="line"/>
      <point x="587" y="456" type="line"/>
      <point x="165" y="456" type="line"/>
      <point x="165" y="0" type="line"/>
    </contour>
    <contour>
      <point x="182" y="278" type="curve" smooth="yes"/>
      <point x="182" y="248"/>
      <point x="208" y="221"/>
      <point x="239" y="221" type="curve" smooth="yes"/>
      <point x="269" y="221"/>
      <point x="295" y="248"/>
      <point x="295" y="278" type="curve" smooth="yes"/>
      <point x="295" y="308"/>
      <point x="269" y="335"/>
      <point x="239" y="335" type="curve" smooth="yes"/>
      <point x="208" y="335"/>
      <point x="182" y="308"/>
    </contour>
    <contour>
      <point x="314" y="0" type="line"/>
      <point x="314" y="486" type="line"/>
      <point x="419" y="486" type="line"/>
      <point x="419" y="0" type="line"/>
    </contour>
    <contour>
      <point x="434" y="278" type="curve" smooth="yes"/>
      <point x="434" y="248"/>
      <point x="460" y="221"/>
      <point x="490" y="221" type="curve" smooth="yes"/>
      <point x="521" y="221"/>
      <point x="547" y="248"/>
      <point x="547" y="278" type="curve" smooth="yes"/>
      <point x="547" y="308"/>
      <point x="521" y="335"/>
      <point x="490" y="335" type="curve" smooth="yes"/>
      <point x="460" y="335"/>
      <point x="434" y="308"/>
    </contour>
  </outline>
</glyph>
<glyph name="tml_U" format="1">
  <advance width="835"/>
  <unicode hex="0B89"/>
  <outline>
    <contour>
      <point x="803" y="95" type="line"/>
      <point x="802.999" y="0.000976562" type="line"/>
      <point x="79.999" y="0.000976562" type="line"/>
      <point x="78.999" y="95.001" type="line"/>
      <point x="215.252" y="95.001" type="line"/>
      <point x="336.952" y="105.377"/>
      <point x="419.065" y="195.384"/>
      <point x="420" y="343.001" type="curve" smooth="yes"/>
      <point x="421" y="448.001"/>
      <point x="386" y="531.001"/>
      <point x="277" y="531.001" type="curve" smooth="yes"/>
      <point x="235.63" y="531.001"/>
      <point x="200.779" y="513.815"/>
      <point x="177.608" y="484.767" type="curve"/>
      <point x="184.284" y="486.22"/>
      <point x="191.401" y="487.001"/>
      <point x="199" y="487.001" type="curve" smooth="yes"/>
      <point x="263" y="487.001"/>
      <point x="337" y="438.001"/>
      <point x="337" y="316.001" type="curve" smooth="yes"/>
      <point x="337" y="212.001"/>
      <point x="283" y="146.001"/>
      <point x="193" y="146.001" type="curve" smooth="yes"/>
      <point x="102" y="146.001"/>
      <point x="48" y="245.001"/>
      <point x="48" y="380.001" type="curve" smooth="yes"/>
      <point x="48" y="522.001"/>
      <point x="154" y="625.001"/>
      <point x="277" y="625.001" type="curve" smooth="yes"/>
      <point x="429" y="625.001"/>
      <point x="521" y="517.001"/>
      <point x="521" y="345.001" type="curve" smooth="yes"/>
      <point x="521" y="218.095"/>
      <point x="475.283" y="140.542"/>
      <point x="430.449" y="95" type="curve"/>
    </contour>
    <contour>
      <point x="153.005" y="305.993" type="curve"/>
      <point x="159.626" y="267.838"/>
      <point x="172.193" y="242.001"/>
      <point x="192.999" y="242.001" type="curve" smooth="yes"/>
      <point x="230.999" y="242.001"/>
      <point x="237.999" y="290.001"/>
      <point x="237.999" y="319.001" type="curve" smooth="yes"/>
      <point x="237.999" y="364.001"/>
      <point x="215.999" y="389.001"/>
      <point x="193.999" y="389.001" type="curve" smooth="yes"/>
      <point x="165.378" y="389.001"/>
      <point x="153.315" y="355.885"/>
    </contour>
  </outline>
</glyph>
<glyph name="tml_E" format="1">
  <advance width="660"/>
  <unicode hex="0B8E"/>
  <outline>
    <contour>
      <point x="428" y="1" type="move" name="tml_virama"/>
    </contour>
    <contour>
      <point x="54" y="239" type="curve" smooth="yes"/>
      <point x="54" y="431"/>
      <point x="144" y="544"/>
      <point x="297" y="545" type="curve" smooth="yes"/>
      <point x="297" y="450" type="line" smooth="yes"/>
      <point x="200" y="450"/>
      <point x="153" y="361"/>
      <point x="153" y="249" type="curve" smooth="yes"/>
      <point x="153" y="155"/>
      <point x="170" y="72"/>
      <point x="217" y="72" type="curve" smooth="yes"/>
      <point x="262" y="72"/>
      <point x="270" y="135"/>
      <point x="270" y="173" type="curve" smooth="yes"/>
      <point x="270" y="232"/>
      <point x="243" y="264"/>
      <point x="217" y="264" type="curve" smooth="yes"/>
      <point x="179" y="264"/>
      <point x="151" y="215"/>
      <point x="162" y="143" type="curve"/>
      <point x="78" y="211" type="line"/>
      <point x="100" y="260"/>
      <point x="129" y="362"/>
      <point x="222" y="362" type="curve" smooth="yes"/>
      <point x="290" y="362"/>
      <point x="369" y="307"/>
      <point x="369" y="170" type="curve" smooth="yes"/>
      <point x="369" y="52"/>
      <point x="312" y="-24"/>
      <point x="217" y="-24" type="curve" smooth="yes"/>
      <point x="115" y="-24"/>
      <point x="54" y="87"/>
    </contour>
    <contour>
      <point x="289" y="450" type="line"/>
      <point x="291" y="545" type="line"/>
      <point x="635" y="545" type="line"/>
      <point x="635" y="450" type="line"/>
      <point x="535" y="450" type="line"/>
      <point x="535" y="0" type="line"/>
      <point x="430" y="0" type="line"/>
      <point x="430" y="450" type="line"/>
    </contour>
  </outline>
</glyph>
<glyph name="tml_Ee" format="1">
  <advance width="646"/>
  <unicode hex="0B8F"/>
  <outline>
    <contour>
      <point x="314" y="1" type="move" name="tml_virama"/>
    </contour>
    <contour>
      <point x="40" y="239" type="curve" smooth="yes"/>
      <point x="40" y="431"/>
      <point x="130" y="544"/>
      <point x="283" y="545" type="curve" smooth="yes"/>
      <point x="283" y="450" type="line" smooth="yes"/>
      <point x="186" y="450"/>
      <point x="139" y="361"/>
      <point x="139" y="249" type="curve" smooth="yes"/>
      <point x="139" y="155"/>
      <point x="156" y="72"/>
      <point x="203" y="72" type="curve" smooth="yes"/>
      <point x="248" y="72"/>
      <point x="256" y="135"/>
      <point x="256" y="173" type="curve" smooth="yes"/>
      <point x="256" y="232"/>
      <point x="229" y="264"/>
      <point x="203" y="264" type="curve" smooth="yes"/>
      <point x="165" y="264"/>
      <point x="137" y="215"/>
      <point x="148" y="143" type="curve"/>
      <point x="64" y="211" type="line"/>
      <point x="86" y="260"/>
      <point x="115" y="362"/>
      <point x="208" y="362" type="curve" smooth="yes"/>
      <point x="276" y="362"/>
      <point x="355" y="307"/>
      <point x="355" y="170" type="curve" smooth="yes"/>
      <point x="355" y="52"/>
      <point x="298" y="-24"/>
      <point x="203" y="-24" type="curve" smooth="yes"/>
      <point x="101" y="-24"/>
      <point x="40" y="87"/>
    </contour>
    <contour>
      <point x="194" y="-161" type="line"/>
      <point x="416" y="48" type="line"/>
      <point x="521" y="0" type="line"/>
      <point x="266" y="-236" type="line"/>
    </contour>
    <contour>
      <point x="275" y="450" type="line"/>
      <point x="277" y="545" type="line"/>
      <point x="621" y="545" type="line"/>
      <point x="621" y="450" type="line"/>
      <point x="521" y="450" type="line"/>
      <point x="521" y="0" type="line"/>
      <point x="416" y="0" type="line"/>
      <point x="416" y="450" type="line"/>
    </contour>
  </outline>
</glyph>
<glyph name="tml_Ka" format="1">
  <advance width="621"/>
  <unicode hex="0B95"/>
  <outline>
    <contour>
      <point x="30" y="170" type="curve" smooth="yes"/>
      <point x="29" y="260"/>
      <point x="70" y="316"/>
      <point x="136" y="330" type="curve"/>
      <point x="136" y="545" type="line"/>
      <point x="506" y="545" type="line"/>
      <point x="506" y="452" type="line"/>
      <point x="406" y="452" type="line"/>
      <point x="406" y="332" type="line"/>
      <point x="440" y="332" type="line" smooth="yes"/>
      <point x="516" y="331"/>
      <point x="591" y="299"/>
      <point x="591" y="172" type="curve" smooth="yes"/>
      <point x="591" y="78"/>
      <point x="565" y="1"/>
      <point x="443" y="-1" type="curve"/>
      <point x="401" y="1" type="line"/>
      <point x="401" y="90" type="line"/>
      <point x="435" y="90" type="line" smooth="yes"/>
      <point x="474" y="91"/>
      <point x="491" y="119"/>
      <point x="491" y="172" type="curve" smooth="yes"/>
      <point x="491" y="219"/>
      <point x="467" y="235"/>
      <point x="427" y="236" type="curve" smooth="yes"/>
      <point x="406" y="236" type="line"/>
      <point x="406" y="224" type="line" smooth="yes"/>
      <point x="407" y="113"/>
      <point x="378" y="0"/>
      <point x="207" y="0" type="curve" smooth="yes"/>
      <point x="80" y="0"/>
      <point x="31" y="73"/>
    </contour>
    <contour>
      <point x="301" y="238" type="line"/>
      <point x="186" y="238" type="line" smooth="yes"/>
      <point x="146" y="238"/>
      <point x="127" y="208"/>
      <point x="127" y="170" type="curve" smooth="yes"/>
      <point x="127" y="121"/>
      <point x="157" y="95"/>
      <point x="207" y="95" type="curve" smooth="yes"/>
      <point x="278" y="95"/>
      <point x="301" y="148"/>
      <point x="301" y="220" type="curve" smooth="yes"/>
    </contour>
    <contour>
      <point x="301" y="333" type="line"/>
      <point x="301" y="452" type="line"/>
      <point x="241" y="452" type="line"/>
      <point x="241" y="333" type="line"/>
    </contour>
  </outline>
</glyph>
<glyph name="tml_Nga" format="1">
  <advance width="782"/>
  <unicode hex="0B99"/>
  <outline>
    <contour>
      <point x="381" y="0" type="move" name="tml_virama"/>
    </contour>
    <contour>
      <point x="59" y="0" type="line"/>
      <point x="59" y="551" type="line"/>
      <point x="459" y="551" type="line"/>
      <point x="459" y="456" type="line"/>
      <point x="359" y="456" type="line"/>
      <point x="359" y="160" type="line"/>
      <point x="254" y="160" type="line"/>
      <point x="254" y="456" type="line"/>
      <point x="164" y="456" type="line"/>
      <point x="164" y="0" type="line"/>
    </contour>
    <contour>
      <point x="253" y="95" type="line"/>
      <point x="690" y="95" type="line"/>
      <point x="690" y="0" type="line"/>
      <point x="253" y="0" type="line"/>
    </contour>
    <contour>
      <point x="280" y="94" type="line"/>
      <point x="340" y="94" type="line" smooth="yes"/>
      <point x="464" y="95"/>
      <point x="462" y="213"/>
      <point x="462" y="248" type="curve" smooth="yes"/>
      <point x="462" y="286"/>
      <point x="440" y="308"/>
      <point x="415" y="308" type="curve" smooth="yes"/>
      <point x="398" y="308"/>
      <point x="357" y="307"/>
      <point x="358" y="214" type="curve" smooth="yes"/>
      <point x="358" y="197"/>
      <point x="358" y="188"/>
      <point x="358" y="169" type="curve"/>
      <point x="269" y="171" type="line"/>
      <point x="259" y="215"/>
      <point x="269" y="293"/>
      <point x="298" y="336" type="curve" smooth="yes"/>
      <point x="332" y="387"/>
      <point x="363" y="407"/>
      <point x="415" y="407" type="curve" smooth="yes"/>
      <point x="500" y="407"/>
      <point x="563" y="345"/>
      <point x="564" y="238" type="curve" smooth="yes"/>
      <point x="565" y="140"/>
      <point x="531" y="10"/>
      <point x="299" y="9" type="curve" smooth="yes"/>
      <point x="281" y="9" type="line"/>
    </contour>
    <contour>
      <point x="608" y="553" type="line"/>
      <point x="713" y="553" type="line"/>
      <point x="713" y="0" type="line"/>
      <point x="608" y="0" type="line"/>
    </contour>
  </outline>
</glyph>
<glyph name="tml_Ca" format="2">
  <advance width="568"/>
  <unicode hex="0B9A"/>
  <anchor x="2" y="0" name="Anchor3"/>
  <anchor x="114" y="0" name="Anchor1"/>
  <anchor x="325" y="0" name="Anchor0"/>
  <outline>
    <contour>
      <point x="43" y="175" type="curve" smooth="yes"/>
      <point x="42" y="267"/>
      <point x="85" y="324"/>
      <point x="152" y="339" type="curve"/>
      <point x="152" y="560" type="line"/>
      <point x="533" y="560" type="line"/>
      <point x="533" y="464" type="line"/>
      <point x="431" y="464" type="line"/>
      <point x="431" y="341" type="line"/>
      <point x="533" y="341" type="line"/>
      <point x="533" y="244" type="line"/>
      <point x="431" y="244" type="line"/>
      <point x="431" y="220" type="line" smooth="yes"/>
      <point x="432" y="111"/>
      <point x="401" y="1"/>
      <point x="227" y="1" type="curve" smooth="yes"/>
      <point x="95" y="1"/>
      <point x="44" y="75"/>
    </contour>
    <contour>
      <point x="323" y="244" type="line"/>
      <point x="203" y="244" type="line" smooth="yes"/>
      <point x="162" y="244"/>
      <point x="142" y="216"/>
      <point x="142" y="179" type="curve" smooth="yes"/>
      <point x="142" y="127"/>
      <point x="173" y="99"/>
      <point x="227" y="99" type="curve" smooth="yes"/>
      <point x="298" y="99"/>
      <point x="323" y="148"/>
      <point x="323" y="216" type="curve" smooth="yes"/>
    </contour>
    <contour>
      <point x="323" y="342" type="line"/>
      <point x="323" y="464" type="line"/>
      <point x="260" y="464" type="line"/>
      <point x="260" y="342" type="line"/>
    </contour>
  </outline>
</glyph>
<glyph name="tml_Ja" format="1">
  <advance width="757"/>
  <unicode hex="0B9C"/>
  <outline>
    <contour>
      <point x="378" y="0" type="move" name="Anchor1"/>
    </contour>
    <contour>
      <point x="420" y="0" type="move" name="Anchor0"/>
    </contour>
    <contour>
      <point x="41" y="24" type="curve" smooth="yes"/>
      <point x="41" y="224.215"/>
      <point x="277.865" y="249.464"/>
      <point x="405" y="260" type="curve" smooth="yes"/>
      <point x="540.419" y="271.222"/>
      <point x="593" y="301.333"/>
      <point x="593" y="380" type="curve" smooth="yes"/>
      <point x="593" y="439"/>
      <point x="565.978" y="475"/>
      <point x="532" y="475" type="curve" smooth="yes"/>
      <point x="479.398" y="475"/>
      <point x="464.819" y="422.02"/>
      <point x="464" y="298" type="curve"/>
      <point x="351" y="298" type="line"/>
      <point x="354.892" y="407.757"/>
      <point x="370.462" y="581"/>
      <point x="532" y="581" type="curve" smooth="yes"/>
      <point x="656.607" y="581"/>
      <point x="707" y="493.288"/>
      <point x="707" y="379" type="curve" smooth="yes"/>
      <point x="707" y="182.138"/>
      <point x="567.426" y="168"/>
      <point x="397" y="158" type="curve" smooth="yes"/>
      <point x="310.937" y="152.95"/>
      <point x="151" y="121.899"/>
      <point x="151" y="19" type="curve" smooth="yes"/>
      <point x="151" y="-31.0635"/>
      <point x="178.365" y="-56"/>
      <point x="222" y="-56" type="curve" smooth="yes"/>
      <point x="331.652" y="-56"/>
      <point x="342.911" y="143"/>
      <point x="552" y="143" type="curve" smooth="yes"/>
      <point x="680.5" y="143"/>
      <point x="706" y="60.7742"/>
      <point x="706" y="-3" type="curve" smooth="yes"/>
      <point x="706" y="-143.445"/>
      <point x="587.824" y="-154"/>
      <point x="505" y="-154" type="curve" smooth="yes"/>
      <point x="483.475" y="-154"/>
      <point x="472.542" y="-154"/>
      <point x="464" y="-154" type="curve"/>
      <point x="464" y="-57" type="line"/>
      <point x="477.458" y="-57"/>
      <point x="483.829" y="-56"/>
      <point x="498" y="-56" type="curve" smooth="yes"/>
      <point x="541.913" y="-56"/>
      <point x="599" y="-50.0159"/>
      <point x="599" y="-3" type="curve" smooth="yes"/>
      <point x="599" y="26.1139"/>
      <point x="577.367" y="43"/>
      <point x="546" y="43" type="curve" smooth="yes"/>
      <point x="406.557" y="43"/>
      <point x="429.114" y="-155"/>
      <point x="222" y="-155" type="curve" smooth="yes"/>
      <point x="131.071" y="-155"/>
      <point x="41" y="-99.5774"/>
    </contour>
    <contour>
      <point x="349" y="298" type="line"/>
      <point x="350.039" y="443.119"/>
      <point x="307.452" y="486"/>
      <point x="188" y="486" type="curve" smooth="yes"/>
      <point x="162.917" y="486"/>
      <point x="145" y="463"/>
      <point x="145" y="429" type="curve" smooth="yes"/>
      <point x="145" y="397"/>
      <point x="162" y="371"/>
      <point x="189" y="371" type="curve" smooth="yes"/>
      <point x="210.5" y="371"/>
      <point x="232" y="389"/>
      <point x="232" y="429" type="curve" smooth="yes"/>
      <point x="232" y="470"/>
      <point x="208.213" y="486"/>
      <point x="189" y="486" type="curve"/>
      <point x="285" y="492" type="line"/>
      <point x="305.647" y="465"/>
      <point x="312" y="438"/>
      <point x="312" y="415" type="curve" smooth="yes"/>
      <point x="312" y="335"/>
      <point x="260.74" y="278.871"/>
      <point x="193" y="278" type="curve" smooth="yes"/>
      <point x="111.044" y="276.946"/>
      <point x="49.0347" y="337"/>
      <point x="48" y="426" type="curve" smooth="yes"/>
      <point x="47.0118" y="511"/>
      <point x="119.154" y="582.503"/>
      <point x="216" y="582" type="curve" smooth="yes"/>
      <point x="423.326" y="580.924"/>
      <point x="463.958" y="441.394"/>
      <point x="465" y="298" type="curve" smooth="yes"/>
    </contour>
  </outline>
</glyph>
<glyph name="tml_Nya" format="1">
  <advance width="1156"/>
  <unicode hex="0B9E"/>
  <outline>
    <contour>
      <point x="94" y="227" type="curve" smooth="yes"/>
      <point x="94" y="362"/>
      <point x="144" y="467"/>
      <point x="200" y="558" type="curve"/>
      <point x="289" y="514" type="line"/>
      <point x="236" y="423"/>
      <point x="200" y="351"/>
      <point x="200" y="221" type="curve" smooth="yes"/>
      <point x="200" y="-37"/>
      <point x="356" y="-174"/>
      <point x="572" y="-173" type="curve" smooth="yes"/>
      <point x="778" y="-172"/>
      <point x="904" y="-68"/>
      <point x="904" y="111" type="curve" smooth="yes"/>
      <point x="904" y="189"/>
      <point x="883" y="266"/>
      <point x="829" y="266" type="curve" smooth="yes"/>
      <point x="782" y="266"/>
      <point x="769" y="225"/>
      <point x="770" y="148" type="curve" smooth="yes"/>
      <point x="770" y="131"/>
      <point x="770" y="112"/>
      <point x="770" y="93" type="curve"/>
      <point x="671" y="91" type="line"/>
      <point x="661" y="175"/>
      <point x="679" y="249"/>
      <point x="708" y="292" type="curve" smooth="yes"/>
      <point x="742" y="343"/>
      <point x="783" y="368"/>
      <point x="835" y="367" type="curve" smooth="yes"/>
      <point x="950" y="365"/>
      <point x="1006" y="244"/>
      <point x="1006" y="116" type="curve" smooth="yes"/>
      <point x="1007" y="-126"/>
      <point x="836" y="-271"/>
      <point x="571" y="-270" type="curve" smooth="yes"/>
      <point x="288" y="-269"/>
      <point x="95" y="-90"/>
    </contour>
    <contour>
      <point x="286" y="239" type="curve" smooth="yes"/>
      <point x="286" y="431"/>
      <point x="394" y="544"/>
      <point x="578" y="545" type="curve" smooth="yes"/>
      <point x="578" y="450" type="line" smooth="yes"/>
      <point x="440" y="450"/>
      <point x="385" y="361"/>
      <point x="385" y="249" type="curve" smooth="yes"/>
      <point x="385" y="155"/>
      <point x="402" y="72"/>
      <point x="449" y="72" type="curve" smooth="yes"/>
      <point x="494" y="72"/>
      <point x="502" y="135"/>
      <point x="502" y="173" type="curve" smooth="yes"/>
      <point x="502" y="232"/>
      <point x="476" y="264"/>
      <point x="450" y="264" type="curve" smooth="yes"/>
      <point x="411" y="264"/>
      <point x="383" y="215"/>
      <point x="394" y="143" type="curve"/>
      <point x="310" y="211" type="line"/>
      <point x="332" y="260"/>
      <point x="361" y="362"/>
      <point x="455" y="362" type="curve" smooth="yes"/>
      <point x="523" y="362"/>
      <point x="601" y="307"/>
      <point x="601" y="170" type="curve" smooth="yes"/>
      <point x="601" y="52"/>
      <point x="544" y="-24"/>
      <point x="449" y="-24" type="curve" smooth="yes"/>
      <point x="347" y="-24"/>
      <point x="286" y="87"/>
    </contour>
    <contour>
      <point x="560" y="450" type="line"/>
      <point x="562" y="545" type="line"/>
      <point x="870" y="545" type="line"/>
      <point x="870" y="450" type="line"/>
      <point x="770" y="450" type="line"/>
      <point x="770" y="0" type="line"/>
      <point x="665" y="0" type="line"/>
      <point x="665" y="450" type="line"/>
    </contour>
  </outline>
</glyph>
<glyph name="tml_Tta" format="1">
  <advance width="663"/>
  <unicode hex="0B9F"/>
  <outline>
    <contour>
      <point x="346" y="0" type="move" name="tml_virama"/>
    </contour>
    <contour>
      <point x="60" y="0" type="line"/>
      <point x="60" y="544" type="line"/>
      <point x="165" y="544" type="line"/>
      <point x="165" y="103" type="line"/>
      <point x="633" y="103" type="line"/>
      <point x="633" y="0" type="line"/>
    </contour>
  </outline>
</glyph>
<glyph name="tml_Nna" format="1">
  <advance width="1274"/>
  <unicode hex="0BA3"/>
  <outline>
    <contour>
      <point x="476" y="0" type="move" name="tml_virama"/>
    </contour>
    <contour>
      <point x="40" y="239" type="curve" smooth="yes"/>
      <point x="40" y="438"/>
      <point x="152" y="555"/>
      <point x="343" y="556" type="curve" smooth="yes"/>
      <point x="343" y="461" type="line" smooth="yes"/>
      <point x="206" y="461"/>
      <point x="139" y="368"/>
      <point x="139" y="249" type="curve" smooth="yes"/>
      <point x="139" y="155"/>
      <point x="156" y="72"/>
      <point x="203" y="72" type="curve" smooth="yes"/>
      <point x="248" y="72"/>
      <point x="256" y="135"/>
      <point x="256" y="173" type="curve" smooth="yes"/>
      <point x="256" y="232"/>
      <point x="230" y="264"/>
      <point x="204" y="264" type="curve" smooth="yes"/>
      <point x="165" y="264"/>
      <point x="137" y="215"/>
      <point x="148" y="143" type="curve"/>
      <point x="64" y="211" type="line"/>
      <point x="86" y="260"/>
      <point x="115" y="362"/>
      <point x="209" y="362" type="curve" smooth="yes"/>
      <point x="277" y="362"/>
      <point x="355" y="307"/>
      <point x="355" y="170" type="curve" smooth="yes"/>
      <point x="355" y="52"/>
      <point x="298" y="-24"/>
      <point x="203" y="-24" type="curve" smooth="yes"/>
      <point x="101" y="-24"/>
      <point x="40" y="87"/>
    </contour>
    <contour>
      <point x="343" y="461" type="line"/>
      <point x="343" y="556" type="line"/>
      <point x="365" y="556" type="line"/>
      <point x="365" y="461" type="line"/>
    </contour>
    <contour>
      <point x="362" y="461" type="curve" smooth="yes"/>
      <point x="362" y="556" type="line" smooth="yes"/>
      <point x="514" y="556"/>
      <point x="673" y="458"/>
      <point x="673" y="208" type="curve" smooth="yes"/>
      <point x="673" y="51"/>
      <point x="630" y="-24"/>
      <point x="528" y="-24" type="curve" smooth="yes"/>
      <point x="430" y="-24"/>
      <point x="382" y="53"/>
      <point x="382" y="208" type="curve" smooth="yes"/>
      <point x="382" y="420"/>
      <point x="476" y="555"/>
      <point x="696" y="556" type="curve"/>
      <point x="692" y="461" type="line"/>
      <point x="544" y="461"/>
      <point x="487" y="365"/>
      <point x="487" y="208" type="curve" smooth="yes"/>
      <point x="487" y="137"/>
      <point x="500" y="72"/>
      <point x="528" y="72" type="curve" smooth="yes"/>
      <point x="556" y="72"/>
      <point x="567" y="130"/>
      <point x="567" y="207" type="curve" smooth="yes"/>
      <point x="567" y="403"/>
      <point x="453" y="461"/>
    </contour>
    <contour>
      <point x="689" y="461" type="curve" smooth="yes"/>
      <point x="689" y="556" type="line" smooth="yes"/>
      <point x="842" y="556"/>
      <point x="1002" y="458"/>
      <point x="1002" y="208" type="curve" smooth="yes"/>
      <point x="1002" y="51"/>
      <point x="959" y="-24"/>
      <point x="858" y="-24" type="curve" smooth="yes"/>
      <point x="761" y="-24"/>
      <point x="713" y="53"/>
      <point x="713" y="208" type="curve" smooth="yes"/>
      <point x="713" y="414"/>
      <point x="792" y="545"/>
      <point x="977" y="546" type="curve"/>
      <point x="1256" y="546" type="line"/>
      <point x="1256" y="451" type="line"/>
      <point x="1156" y="451" type="line"/>
      <point x="1156" y="0" type="line"/>
      <point x="1051" y="0" type="line"/>
      <point x="1051" y="451" type="line"/>
      <point x="978" y="451" type="line"/>
      <point x="862" y="451"/>
      <point x="818" y="359"/>
      <point x="818" y="208" type="curve" smooth="yes"/>
      <point x="818" y="137"/>
      <point x="831" y="72"/>
      <point x="858" y="72" type="curve" smooth="yes"/>
      <point x="885" y="72"/>
      <point x="896" y="130"/>
      <point x="896" y="207" type="curve" smooth="yes"/>
      <point x="896" y="403"/>
      <point x="781" y="461"/>
    </contour>
  </outline>
</glyph>
<glyph name="tml_Ta" format="1">
  <advance width="632"/>
  <unicode hex="0BA4"/>
  <outline>
    <contour>
      <point x="300" y="0" type="move" name="tml_virama"/>
    </contour>
    <contour>
      <point x="30" y="170" type="curve" smooth="yes"/>
      <point x="29" y="260"/>
      <point x="70" y="316"/>
      <point x="136" y="330" type="curve"/>
      <point x="136" y="545" type="line"/>
      <point x="506" y="545" type="line"/>
      <point x="506" y="452" type="line"/>
      <point x="406" y="452" type="line"/>
      <point x="406" y="332" type="line"/>
      <point x="440" y="332" type="line" smooth="yes"/>
      <point x="515" y="331"/>
      <point x="591" y="287"/>
      <point x="592" y="115" type="curve" smooth="yes"/>
      <point x="592" y="115" type="line"/>
      <point x="592" y="114"/>
      <point x="592" y="114"/>
      <point x="592" y="113" type="curve" smooth="yes"/>
      <point x="592" y="112"/>
      <point x="592" y="112"/>
      <point x="592" y="111" type="curve" smooth="yes"/>
      <point x="592" y="111" type="line"/>
      <point x="590" y="-55"/>
      <point x="491" y="-140"/>
      <point x="322" y="-141" type="curve" smooth="yes"/>
      <point x="181" y="-142"/>
      <point x="192" y="-219"/>
      <point x="192" y="-271" type="curve"/>
      <point x="90" y="-271" type="line"/>
      <point x="91" y="-171"/>
      <point x="103" y="-39"/>
      <point x="320" y="-37" type="curve" smooth="yes"/>
      <point x="443" y="-36"/>
      <point x="491" y="12"/>
      <point x="492" y="114" type="curve" smooth="yes"/>
      <point x="492" y="204"/>
      <point x="467" y="234"/>
      <point x="427" y="236" type="curve" smooth="yes"/>
      <point x="406" y="236" type="line"/>
      <point x="406" y="224" type="line" smooth="yes"/>
      <point x="407" y="113"/>
      <point x="378" y="0"/>
      <point x="207" y="0" type="curve" smooth="yes"/>
      <point x="80" y="0"/>
      <point x="31" y="73"/>
    </contour>
    <contour>
      <point x="301" y="238" type="line"/>
      <point x="186" y="238" type="line" smooth="yes"/>
      <point x="146" y="238"/>
      <point x="127" y="208"/>
      <point x="127" y="170" type="curve" smooth="yes"/>
      <point x="127" y="121"/>
      <point x="157" y="95"/>
      <point x="207" y="95" type="curve" smooth="yes"/>
      <point x="278" y="95"/>
      <point x="301" y="148"/>
      <point x="301" y="220" type="curve" smooth="yes"/>
    </contour>
    <contour>
      <point x="301" y="333" type="line"/>
      <point x="301" y="452" type="line"/>
      <point x="241" y="452" type="line"/>
      <point x="241" y="333" type="line"/>
    </contour>
  </outline>
</glyph>
<glyph name="tml_Na" format="1">
  <advance width="652"/>
  <unicode hex="0BA8"/>
  <outline>
    <contour>
      <point x="250" y="0" type="move" name="tml_virama"/>
    </contour>
    <contour>
      <point x="58" y="0" type="line"/>
      <point x="58" y="551" type="line"/>
      <point x="487" y="551" type="line"/>
      <point x="487" y="456" type="line"/>
      <point x="387" y="456" type="line"/>
      <point x="387" y="0" type="line"/>
      <point x="282" y="0" type="line"/>
      <point x="282" y="456" type="line"/>
      <point x="163" y="456" type="line"/>
      <point x="163" y="0" type="line"/>
    </contour>
    <contour>
      <point x="107" y="-291" type="line"/>
      <point x="108" y="-189"/>
      <point x="110" y="-56"/>
      <point x="348" y="-53" type="curve" smooth="yes"/>
      <point x="472" y="-52"/>
      <point x="520" y="6"/>
      <point x="520" y="131" type="curve" smooth="yes"/>
      <point x="520" y="199"/>
      <point x="499" y="266"/>
      <point x="445" y="266" type="curve" smooth="yes"/>
      <point x="398" y="266"/>
      <point x="385" y="227"/>
      <point x="386" y="154" type="curve" smooth="yes"/>
      <point x="386" y="137"/>
      <point x="386" y="118"/>
      <point x="386" y="99" type="curve"/>
      <point x="287" y="91" type="line"/>
      <point x="277" y="175"/>
      <point x="295" y="249"/>
      <point x="324" y="292" type="curve" smooth="yes"/>
      <point x="358" y="343"/>
      <point x="399" y="368"/>
      <point x="451" y="367" type="curve" smooth="yes"/>
      <point x="566" y="365"/>
      <point x="622" y="253"/>
      <point x="622" y="136" type="curve" smooth="yes"/>
      <point x="622" y="-62"/>
      <point x="519" y="-163"/>
      <point x="347" y="-164" type="curve" smooth="yes"/>
      <point x="197" y="-165"/>
      <point x="209" y="-240"/>
      <point x="209" y="-291" type="curve"/>
    </contour>
  </outline>
</glyph>
<glyph name="tml_Nnna" format="1">
  <advance width="940"/>
  <unicode hex="0BA9"/>
  <outline>
    <contour>
      <point x="342" y="461" type="line"/>
      <point x="342" y="556" type="line"/>
      <point x="364" y="556" type="line"/>
      <point x="364" y="461" type="line"/>
    </contour>
    <contour>
      <point x="40" y="239" type="curve" smooth="yes"/>
      <point x="40" y="437.627"/>
      <point x="151.852" y="555.043"/>
      <point x="342" y="556" type="curve" smooth="yes"/>
      <point x="342" y="461" type="line" smooth="yes"/>
      <point x="196.899" y="461"/>
      <point x="139" y="367.584"/>
      <point x="139" y="249" type="curve" smooth="yes"/>
      <point x="139" y="155"/>
      <point x="155.956" y="72"/>
      <point x="203" y="72" type="curve" smooth="yes"/>
      <point x="247.632" y="72"/>
      <point x="256" y="134.523"/>
      <point x="256" y="173" type="curve" smooth="yes"/>
      <point x="256" y="231.943"/>
      <point x="230" y="264"/>
      <point x="204" y="264" type="curve" smooth="yes"/>
      <point x="165.05" y="264"/>
      <point x="137.267" y="215.405"/>
      <point x="148" y="143" type="curve"/>
      <point x="64" y="211" type="line"/>
      <point x="86.0859" y="260.442"/>
      <point x="115.464" y="362"/>
      <point x="209" y="362" type="curve" smooth="yes"/>
      <point x="277.011" y="362"/>
      <point x="355" y="306.712"/>
      <point x="355" y="170" type="curve" smooth="yes"/>
      <point x="355" y="51.627"/>
      <point x="298.487" y="-24"/>
      <point x="203" y="-24" type="curve" smooth="yes"/>
      <point x="101.063" y="-24"/>
      <point x="40" y="87"/>
    </contour>
    <contour>
      <point x="361" y="461" type="curve" smooth="yes"/>
      <point x="361" y="556" type="line" smooth="yes"/>
      <point x="513.137" y="556"/>
      <point x="673" y="457.671"/>
      <point x="673" y="208" type="curve" smooth="yes"/>
      <point x="673" y="50.5977"/>
      <point x="630.108" y="-24"/>
      <point x="528" y="-24" type="curve" smooth="yes"/>
      <point x="429.022" y="-24"/>
      <point x="380" y="53.3389"/>
      <point x="380" y="208" type="curve" smooth="yes"/>
      <point x="380" y="413.654"/>
      <point x="460.3" y="544.872"/>
      <point x="647" y="546" type="curve"/>
      <point x="925" y="546" type="line"/>
      <point x="925" y="451" type="line"/>
      <point x="825" y="451" type="line"/>
      <point x="825" y="0" type="line"/>
      <point x="720" y="0" type="line"/>
      <point x="720" y="451" type="line"/>
      <point x="648" y="451" type="line"/>
      <point x="530.23" y="451"/>
      <point x="485" y="358.592"/>
      <point x="485" y="208" type="curve" smooth="yes"/>
      <point x="485" y="137.21"/>
      <point x="498.87" y="72"/>
      <point x="528" y="72" type="curve" smooth="yes"/>
      <point x="556.025" y="72"/>
      <point x="567" y="129.956"/>
      <point x="567" y="207" type="curve" smooth="yes"/>
      <point x="567" y="402.547"/>
      <point x="452.402" y="461"/>
    </contour>
  </outline>
</glyph>
<glyph name="tml_Pa" format="1">
  <advance width="511"/>
  <unicode hex="0BAA"/>
  <outline>
    <contour>
      <point x="266" y="0" type="move" name="tml_virama"/>
    </contour>
    <contour>
      <point x="70" y="0" type="line"/>
      <point x="70" y="543" type="line"/>
      <point x="175" y="543" type="line"/>
      <point x="175" y="100" type="line"/>
      <point x="346" y="100" type="line"/>
      <point x="346" y="543" type="line"/>
      <point x="451" y="543" type="line"/>
      <point x="451" y="0" type="line"/>
    </contour>
  </outline>
</glyph>
<glyph name="tml_Ma" format="1">
  <advance width="624"/>
  <unicode hex="0BAE"/>
  <outline>
    <contour>
      <point x="286" y="0" type="move" name="tml_virama"/>
    </contour>
    <contour>
      <point x="250" y="66" type="line" smooth="yes"/>
      <point x="250" y="382" type="line" smooth="yes"/>
      <point x="250" y="496.025"/>
      <point x="283.91" y="560.101"/>
      <point x="399" y="561" type="curve" smooth="yes"/>
      <point x="519.394" y="561.935"/>
      <point x="572.121" y="403.839"/>
      <point x="573" y="271" type="curve" smooth="yes"/>
      <point x="574.373" y="85.2948"/>
      <point x="513.955" y="0"/>
      <point x="389" y="0" type="curve"/>
      <point x="371" y="95" type="line"/>
      <point x="460.798" y="93.8718"/>
      <point x="468" y="170.59"/>
      <point x="468" y="271" type="curve" smooth="yes"/>
      <point x="468" y="355.308"/>
      <point x="448.28" y="465"/>
      <point x="400" y="465" type="curve" smooth="yes"/>
      <point x="360.488" y="465"/>
      <point x="355" y="432.767"/>
      <point x="355" y="382" type="curve" smooth="yes"/>
      <point x="355" y="66" type="line"/>
    </contour>
    <contour>
      <point x="60" y="0" type="line"/>
      <point x="60" y="545" type="line"/>
      <point x="165" y="545" type="line"/>
      <point x="165" y="95" type="line"/>
      <point x="378" y="95" type="line"/>
      <point x="393" y="0" type="line"/>
    </contour>
  </outline>
</glyph>
<glyph name="tml_Ya" format="1">
  <advance width="681"/>
  <unicode hex="0BAF"/>
  <outline>
    <contour>
      <point x="348" y="0" type="move" name="tml_virama"/>
    </contour>
    <contour>
      <point x="225" y="-17" type="move" smooth="yes"/>
    </contour>
    <contour>
      <point x="61" y="167" type="curve" smooth="yes"/>
      <point x="61" y="545" type="line" smooth="yes"/>
      <point x="166" y="545" type="line"/>
      <point x="166" y="161" type="line" smooth="yes"/>
      <point x="166" y="96.4272"/>
      <point x="188.177" y="80"/>
      <point x="224" y="80" type="curve"/>
      <point x="291.096" y="80"/>
      <point x="306.115" y="137.956"/>
      <point x="306" y="232" type="curve" smooth="yes"/>
      <point x="380.749" y="268" type="line"/>
      <point x="381.002" y="77.9481"/>
      <point x="309.562" y="-16.6825"/>
      <point x="225" y="-17" type="curve" smooth="yes"/>
      <point x="93.5559" y="-17.5707"/>
      <point x="61" y="56.6224"/>
    </contour>
    <contour>
      <point x="306" y="0" type="line"/>
      <point x="306" y="545" type="line"/>
      <point x="411" y="545" type="line"/>
      <point x="411" y="95" type="line"/>
      <point x="530" y="95" type="line"/>
      <point x="530" y="545" type="line"/>
      <point x="635" y="545" type="line"/>
      <point x="635" y="0" type="line"/>
    </contour>
  </outline>
</glyph>
<glyph name="tml_Ra" format="1">
  <advance width="498"/>
  <unicode hex="0BB0"/>
  <outline>
    <contour>
      <point x="220" y="0" type="move" name="tml_virama"/>
    </contour>
    <contour>
      <point x="58" y="0" type="line"/>
      <point x="58" y="551" type="line"/>
      <point x="487" y="551" type="line"/>
      <point x="487" y="456" type="line"/>
      <point x="387" y="456" type="line"/>
      <point x="387" y="0" type="line"/>
      <point x="282" y="0" type="line"/>
      <point x="282" y="456" type="line"/>
      <point x="163" y="456" type="line"/>
      <point x="163" y="0" type="line"/>
    </contour>
    <contour>
      <point x="69" y="-170" type="line"/>
      <point x="284" y="32" type="line"/>
      <point x="388" y="0" type="line"/>
      <point x="133" y="-236" type="line"/>
    </contour>
  </outline>
</glyph>
<glyph name="tml_La" format="1">
  <advance width="765"/>
  <unicode hex="0BB2"/>
  <outline>
    <contour>
      <point x="712" y="0" type="move" name="Anchor2"/>
    </contour>
    <contour>
      <point x="389" y="0" type="move" name="Anchor0"/>
    </contour>
    <contour>
      <point x="551" y="-23" type="curve" smooth="yes"/>
      <point x="707" y="-23"/>
      <point x="725" y="151"/>
      <point x="725" y="255" type="curve" smooth="yes"/>
      <point x="725" y="401"/>
      <point x="672" y="525"/>
      <point x="617" y="584" type="curve" smooth="yes"/>
      <point x="530" y="530" type="line" smooth="yes"/>
      <point x="530" y="530"/>
      <point x="619" y="445"/>
      <point x="619" y="256" type="curve" smooth="yes"/>
      <point x="619" y="161"/>
      <point x="612" y="75"/>
      <point x="551" y="75" type="curve" smooth="yes"/>
      <point x="499" y="75"/>
      <point x="485" y="112"/>
      <point x="485" y="161" type="curve" smooth="yes"/>
      <point x="485" y="215"/>
      <point x="509" y="284"/>
      <point x="509" y="332" type="curve" smooth="yes"/>
      <point x="509" y="466"/>
      <point x="438" y="577"/>
      <point x="273" y="576" type="curve" smooth="yes"/>
      <point x="115" y="575"/>
      <point x="23" y="452"/>
      <point x="23" y="245" type="curve" smooth="yes"/>
      <point x="23" y="90"/>
      <point x="85" y="-23"/>
      <point x="190" y="-23" type="curve" smooth="yes"/>
      <point x="288" y="-23"/>
      <point x="346" y="54"/>
      <point x="346" y="175" type="curve" smooth="yes"/>
      <point x="346" y="316"/>
      <point x="266" y="373"/>
      <point x="197" y="373" type="curve" smooth="yes"/>
      <point x="100" y="373"/>
      <point x="69" y="267"/>
      <point x="47" y="217" type="curve"/>
      <point x="134" y="148" type="line"/>
      <point x="122" y="222"/>
      <point x="151" y="272"/>
      <point x="191" y="272" type="curve" smooth="yes"/>
      <point x="217" y="272"/>
      <point x="245" y="239"/>
      <point x="245" y="178" type="curve" smooth="yes"/>
      <point x="245" y="139"/>
      <point x="236" y="75"/>
      <point x="190" y="75" type="curve" smooth="yes"/>
      <point x="142" y="75"/>
      <point x="124" y="159"/>
      <point x="124" y="256" type="curve" smooth="yes"/>
      <point x="124" y="380"/>
      <point x="173" y="479"/>
      <point x="273" y="479" type="curve" smooth="yes"/>
      <point x="332" y="479"/>
      <point x="404" y="429"/>
      <point x="405" y="335" type="curve" smooth="yes"/>
      <point x="406" y="287"/>
      <point x="385" y="227"/>
      <point x="384" y="170" type="curve" smooth="yes"/>
      <point x="384" y="69"/>
      <point x="406" y="-23"/>
    </contour>
  </outline>
</glyph>
<glyph name="tml_Lla" format="1">
  <advance width="885"/>
  <unicode hex="0BB3"/>
  <outline>
    <contour>
      <point x="503" y="0" type="move" name="Anchor1"/>
    </contour>
    <contour>
      <point x="482" y="0" type="move" name="Anchor0"/>
    </contour>
    <contour>
      <point x="40" y="245" type="curve" smooth="yes"/>
      <point x="40" y="453.622"/>
      <point x="125.53" y="579"/>
      <point x="269" y="579" type="curve" smooth="yes"/>
      <point x="405.231" y="579"/>
      <point x="500" y="439.144"/>
      <point x="500" y="235" type="curve" smooth="yes"/>
      <point x="419" y="257" type="line" smooth="yes"/>
      <point x="419" y="392"/>
      <point x="360.154" y="482"/>
      <point x="269" y="482" type="curve" smooth="yes"/>
      <point x="182.605" y="482"/>
      <point x="142" y="380.995"/>
      <point x="142" y="255" type="curve" smooth="yes"/>
      <point x="142" y="158"/>
      <point x="159" y="74"/>
      <point x="207" y="74" type="curve" smooth="yes"/>
      <point x="253" y="74"/>
      <point x="262" y="139"/>
      <point x="262" y="178" type="curve" smooth="yes"/>
      <point x="262" y="245.559"/>
      <point x="234" y="281"/>
      <point x="208" y="281" type="curve" smooth="yes"/>
      <point x="165.143" y="281"/>
      <point x="145.143" y="235.032"/>
      <point x="148" y="167" type="curve"/>
      <point x="64" y="216" type="line"/>
      <point x="64" y="271.619"/>
      <point x="124.336" y="362"/>
      <point x="209" y="362" type="curve" smooth="yes"/>
      <point x="290.093" y="362"/>
      <point x="364" y="296.688"/>
      <point x="364" y="174" type="curve" smooth="yes"/>
      <point x="364" y="53"/>
      <point x="305" y="-24"/>
      <point x="207" y="-24" type="curve" smooth="yes"/>
      <point x="102" y="-24"/>
      <point x="40" y="90"/>
    </contour>
    <contour>
      <point x="419" y="1" type="line"/>
      <point x="419" y="560" type="line"/>
      <point x="858" y="560" type="line"/>
      <point x="858" y="462" type="line"/>
      <point x="755" y="462" type="line"/>
      <point x="755" y="1" type="line"/>
      <point x="648" y="1" type="line"/>
      <point x="648" y="462" type="line"/>
      <point x="527" y="462" type="line"/>
      <point x="527" y="1" type="line"/>
    </contour>
  </outline>
</glyph>
<glyph name="tml_Va" format="1">
  <advance width="770"/>
  <unicode hex="0BB5"/>
  <outline>
    <contour>
      <point x="966" y="0" type="move" name="Anchor4"/>
    </contour>
    <contour>
      <point x="625" y="0" type="move" name="Anchor1"/>
    </contour>
    <contour>
      <point x="413" y="0" type="move" name="Anchor0"/>
    </contour>
    <contour>
      <point x="40" y="245" type="curve" smooth="yes"/>
      <point x="40" y="448"/>
      <point x="133" y="570"/>
      <point x="289" y="570" type="curve" smooth="yes"/>
      <point x="426.41" y="570"/>
      <point x="522" y="451.692"/>
      <point x="522" y="279" type="curve" smooth="yes"/>
      <point x="522" y="144.437"/>
      <point x="466" y="59"/>
      <point x="466" y="59" type="curve"/>
      <point x="388" y="81" type="line"/>
      <point x="406" y="121"/>
      <point x="419" y="172"/>
      <point x="419" y="263" type="curve" smooth="yes"/>
      <point x="419" y="389"/>
      <point x="368" y="473"/>
      <point x="289" y="473" type="curve" smooth="yes"/>
      <point x="189" y="473"/>
      <point x="142" y="376"/>
      <point x="142" y="255" type="curve" smooth="yes"/>
      <point x="142" y="158"/>
      <point x="159" y="74"/>
      <point x="207" y="74" type="curve" smooth="yes"/>
      <point x="253" y="74"/>
      <point x="262" y="139"/>
      <point x="262" y="178" type="curve" smooth="yes"/>
      <point x="262" y="245.559"/>
      <point x="234" y="281"/>
      <point x="208" y="281" type="curve" smooth="yes"/>
      <point x="165.143" y="281"/>
      <point x="145.143" y="235.032"/>
      <point x="148" y="167" type="curve"/>
      <point x="64" y="216" type="line"/>
      <point x="64" y="271.619"/>
      <point x="124.336" y="362"/>
      <point x="209" y="362" type="curve" smooth="yes"/>
      <point x="290.093" y="362"/>
      <point x="364" y="296.688"/>
      <point x="364" y="174" type="curve" smooth="yes"/>
      <point x="364" y="53"/>
      <point x="305" y="-24"/>
      <point x="207" y="-24" type="curve" smooth="yes"/>
      <point x="102" y="-24"/>
      <point x="40" y="90"/>
    </contour>
    <contour>
      <point x="389" y="84" type="line"/>
      <point x="496" y="101" type="line"/>
      <point x="603" y="101" type="line"/>
      <point x="603" y="559" type="line"/>
      <point x="710" y="559" type="line"/>
      <point x="710" y="1" type="line"/>
      <point x="390" y="1" type="line"/>
    </contour>
  </outline>
</glyph>
<glyph name="tml_Sha" format="1">
  <advance width="811"/>
  <unicode hex="0BB6"/>
  <outline>
    <contour>
      <point x="383" y="0" type="move" name="tml_virama"/>
    </contour>
    <contour>
      <point x="56" y="545" type="line"/>
      <point x="161" y="545" type="line"/>
      <point x="161" y="148" type="line" smooth="yes"/>
      <point x="161" y="94"/>
      <point x="183" y="80"/>
      <point x="214" y="80" type="curve" smooth="yes"/>
      <point x="240" y="80"/>
      <point x="271" y="94"/>
      <point x="271" y="148" type="curve" smooth="yes"/>
      <point x="271" y="545" type="line"/>
      <point x="376" y="545" type="line"/>
      <point x="376" y="148" type="line" smooth="yes"/>
      <point x="376" y="38"/>
      <point x="318" y="-17"/>
      <point x="212" y="-17" type="curve" smooth="yes"/>
      <point x="101" y="-17"/>
      <point x="56" y="44"/>
      <point x="56" y="148" type="curve" smooth="yes"/>
    </contour>
    <contour>
      <point x="271" y="450" type="line"/>
      <point x="271" y="545" type="line"/>
      <point x="546" y="545" type="line"/>
      <point x="564" y="450" type="line"/>
    </contour>
    <contour>
      <point x="441" y="148" type="curve" smooth="yes"/>
      <point x="441" y="530" type="line" smooth="yes"/>
      <point x="551" y="530" type="line"/>
      <point x="551" y="148" type="line" smooth="yes"/>
      <point x="551" y="94"/>
      <point x="581" y="83"/>
      <point x="601" y="83" type="curve" smooth="yes"/>
      <point x="639" y="83"/>
      <point x="646" y="131"/>
      <point x="646" y="275" type="curve" smooth="yes"/>
      <point x="646" y="385"/>
      <point x="641" y="451"/>
      <point x="531" y="450" type="curve"/>
      <point x="541" y="545" type="line"/>
      <point x="666" y="545"/>
      <point x="755.727" y="516.001"/>
      <point x="755" y="275" type="curve" smooth="yes"/>
      <point x="754.448" y="91.9974"/>
      <point x="719" y="-15"/>
      <point x="598" y="-15" type="curve" smooth="yes"/>
      <point x="523.988" y="-15"/>
      <point x="441" y="15"/>
    </contour>
  </outline>
</glyph>
<glyph name="tml_Ssa" format="1">
  <advance width="1023"/>
  <unicode hex="0BB7"/>
  <outline>
    <contour>
      <point x="455" y="0" type="move" name="tml_virama"/>
    </contour>
    <contour>
      <point x="40" y="239" type="curve" smooth="yes"/>
      <point x="40" y="437"/>
      <point x="130" y="555"/>
      <point x="283" y="555" type="curve" smooth="yes"/>
      <point x="417" y="555"/>
      <point x="511" y="434"/>
      <point x="511" y="258" type="curve" smooth="yes"/>
      <point x="511" y="116"/>
      <point x="466" y="57"/>
      <point x="466" y="57" type="curve"/>
      <point x="379" y="79" type="line"/>
      <point x="396" y="118"/>
      <point x="410" y="167"/>
      <point x="410" y="256" type="curve" smooth="yes"/>
      <point x="410" y="379"/>
      <point x="360" y="461"/>
      <point x="283" y="461" type="curve" smooth="yes"/>
      <point x="186" y="461"/>
      <point x="139" y="367"/>
      <point x="139" y="249" type="curve" smooth="yes"/>
      <point x="139" y="155"/>
      <point x="156" y="72"/>
      <point x="203" y="72" type="curve" smooth="yes"/>
      <point x="248" y="72"/>
      <point x="256" y="135"/>
      <point x="256" y="173" type="curve" smooth="yes"/>
      <point x="256" y="232"/>
      <point x="230" y="264"/>
      <point x="204" y="264" type="curve" smooth="yes"/>
      <point x="165" y="264"/>
      <point x="137" y="215"/>
      <point x="148" y="143" type="curve"/>
      <point x="64" y="211" type="line"/>
      <point x="86" y="260"/>
      <point x="115" y="362"/>
      <point x="209" y="362" type="curve" smooth="yes"/>
      <point x="277" y="362"/>
      <point x="355" y="307"/>
      <point x="355" y="170" type="curve" smooth="yes"/>
      <point x="355" y="52"/>
      <point x="298" y="-24"/>
      <point x="203" y="-24" type="curve" smooth="yes"/>
      <point x="101" y="-24"/>
      <point x="40" y="87"/>
    </contour>
    <contour>
      <point x="379" y="0" type="line"/>
      <point x="379" y="79" type="line"/>
      <point x="483" y="96" type="line"/>
      <point x="868" y="96" type="line"/>
      <point x="868" y="461" type="line"/>
      <point x="973" y="461" type="line"/>
      <point x="973" y="0" type="line"/>
    </contour>
    <contour>
      <point x="524" y="399" type="curve" smooth="yes"/>
      <point x="521" y="500"/>
      <point x="589" y="555"/>
      <point x="662" y="555" type="curve" smooth="yes"/>
      <point x="782" y="555"/>
      <point x="802" y="467"/>
      <point x="801" y="404" type="curve"/>
      <point x="696" y="384" type="line"/>
      <point x="695" y="435"/>
      <point x="690" y="461"/>
      <point x="664" y="460" type="curve" smooth="yes"/>
      <point x="644" y="460"/>
      <point x="624" y="438"/>
      <point x="625" y="396" type="curve" smooth="yes"/>
      <point x="625" y="350"/>
      <point x="647" y="250"/>
      <point x="752" y="250" type="curve" smooth="yes"/>
      <point x="857" y="250"/>
      <point x="867" y="326"/>
      <point x="868" y="428" type="curve" smooth="yes"/>
      <point x="943" y="425" type="line" smooth="yes"/>
      <point x="943" y="290"/>
      <point x="915" y="150"/>
      <point x="748" y="150" type="curve" smooth="yes"/>
      <point x="633" y="150"/>
      <point x="528" y="226"/>
    </contour>
    <contour>
      <point x="696" y="-152" type="line"/>
      <point x="696" y="388" type="line"/>
      <point x="801" y="408" type="line"/>
      <point x="801" y="-152" type="line"/>
    </contour>
  </outline>
</glyph>
<glyph name="tml_Sa" format="1">
  <advance width="1024"/>
  <unicode hex="0BB8"/>
  <outline>
    <contour>
      <point x="1120" y="0" type="move" name="Anchor2"/>
    </contour>
    <contour>
      <point x="538" y="0" type="move" name="Anchor0"/>
    </contour>
    <contour>
      <point x="465" y="0" type="move" name="tml_virama"/>
    </contour>
    <contour>
      <point x="810" y="-23" type="curve" smooth="yes"/>
      <point x="665" y="-23"/>
      <point x="654" y="73.7666"/>
      <point x="654" y="180" type="curve" smooth="yes"/>
      <point x="654" y="385" type="line" smooth="yes"/>
      <point x="652.903" y="445.046"/>
      <point x="625.041" y="477"/>
      <point x="592" y="477" type="curve" smooth="yes"/>
      <point x="545.691" y="477"/>
      <point x="523" y="424.17"/>
      <point x="523" y="358" type="curve"/>
      <point x="422" y="327" type="line" smooth="yes"/>
      <point x="422" y="481.469"/>
      <point x="484.558" y="574.125"/>
      <point x="592" y="574" type="curve" smooth="yes"/>
      <point x="715.596" y="573.856"/>
      <point x="756" y="487.442"/>
      <point x="756" y="382" type="curve" smooth="yes"/>
      <point x="756" y="171" type="line" smooth="yes"/>
      <point x="756" y="116.303"/>
      <point x="758" y="75"/>
      <point x="810" y="75" type="curve" smooth="yes"/>
      <point x="871" y="75"/>
      <point x="878" y="161"/>
      <point x="878" y="256" type="curve" smooth="yes"/>
      <point x="878" y="445"/>
      <point x="789" y="530"/>
      <point x="789" y="530" type="curve" smooth="yes"/>
      <point x="876" y="584" type="line" smooth="yes"/>
      <point x="931" y="525"/>
      <point x="984" y="401"/>
      <point x="984" y="255" type="curve" smooth="yes"/>
      <point x="984" y="151"/>
      <point x="966" y="-23"/>
    </contour>
    <contour>
      <point x="40" y="249" type="curve" smooth="yes"/>
      <point x="40" y="452"/>
      <point x="133" y="574"/>
      <point x="289" y="574" type="curve" smooth="yes"/>
      <point x="427" y="574"/>
      <point x="523" y="483.338"/>
      <point x="523" y="351" type="curve" smooth="yes"/>
      <point x="521" y="0" type="line"/>
      <point x="418" y="0" type="line"/>
      <point x="419" y="349" type="line" smooth="yes"/>
      <point x="419" y="425.8"/>
      <point x="368" y="477"/>
      <point x="289" y="477" type="curve" smooth="yes"/>
      <point x="189" y="477"/>
      <point x="142" y="380"/>
      <point x="142" y="259" type="curve" smooth="yes"/>
      <point x="142" y="162"/>
      <point x="159" y="78"/>
      <point x="207" y="78" type="curve" smooth="yes"/>
      <point x="253" y="78"/>
      <point x="262" y="143"/>
      <point x="262" y="182" type="curve" smooth="yes"/>
      <point x="262" y="243"/>
      <point x="234" y="275"/>
      <point x="208" y="275" type="curve" smooth="yes"/>
      <point x="168" y="275"/>
      <point x="140" y="225"/>
      <point x="152" y="151" type="curve"/>
      <point x="64" y="220" type="line"/>
      <point x="86" y="270"/>
      <point x="116" y="376"/>
      <point x="213" y="376" type="curve" smooth="yes"/>
      <point x="282" y="376"/>
      <point x="364" y="319"/>
      <point x="364" y="178" type="curve" smooth="yes"/>
      <point x="364" y="57"/>
      <point x="305" y="-20"/>
      <point x="207" y="-20" type="curve" smooth="yes"/>
      <point x="102" y="-20"/>
      <point x="40" y="94"/>
    </contour>
  </outline>
</glyph>
<glyph name="tml_MatraAa" format="1">
  <advance width="486"/>
  <unicode hex="0BBE"/>
  <outline>
    <contour>
      <point x="50" y="0" type="line"/>
      <point x="50" y="545" type="line"/>
      <point x="479" y="545" type="line"/>
      <point x="479" y="450" type="line"/>
      <point x="379" y="450" type="line"/>
      <point x="379" y="0" type="line"/>
      <point x="274" y="0" type="line"/>
      <point x="274" y="450" type="line"/>
      <point x="155" y="450" type="line"/>
      <point x="155" y="0" type="line"/>
    </contour>
  </outline>
</glyph>
<glyph name="tml_MatraU" format="1">
  <advance width="229"/>
  <unicode hex="0BC1"/>
  <outline>
    <contour>
      <point x="107" y="545" type="curve" smooth="yes"/>
      <point x="-133" y="545" type="line" smooth="yes"/>
      <point x="-133" y="510" type="line" smooth="yes"/>
      <point x="123" y="510" type="line" smooth="yes"/>
      <point x="131" y="510"/>
      <point x="167" y="511"/>
      <point x="167" y="436" type="curve" smooth="yes"/>
      <point x="167" y="410"/>
      <point x="161" y="368"/>
      <point x="126" y="368" type="curve" smooth="yes"/>
      <point x="94" y="368"/>
      <point x="83" y="407"/>
      <point x="83" y="436" type="curve" smooth="yes"/>
      <point x="83" y="470"/>
      <point x="94" y="510"/>
      <point x="125" y="510" type="curve"/>
      <point x="122" y="536" type="line"/>
      <point x="66" y="536"/>
      <point x="46" y="489"/>
      <point x="46" y="436" type="curve" smooth="yes"/>
      <point x="46" y="384"/>
      <point x="73" y="333"/>
      <point x="126" y="333" type="curve" smooth="yes"/>
      <point x="175" y="333"/>
      <point x="204" y="369"/>
      <point x="204" y="436" type="curve" smooth="yes"/>
      <point x="204" y="530.27"/>
      <point x="153" y="545"/>
    </contour>
  </outline>
</glyph>
<glyph name="tml_MatraUu" format="1">
  <advance width="335"/>
  <unicode hex="0BC2"/>
  <outline>
    <contour>
      <point x="107" y="545" type="curve" smooth="yes"/>
      <point x="-133" y="545" type="line" smooth="yes"/>
      <point x="-133" y="510" type="line" smooth="yes"/>
      <point x="103" y="510" type="line" smooth="yes"/>
      <point x="126.455" y="510"/>
      <point x="177" y="511"/>
      <point x="177" y="436" type="curve" smooth="yes"/>
      <point x="177" y="410"/>
      <point x="171" y="368"/>
      <point x="136" y="368" type="curve" smooth="yes"/>
      <point x="104" y="368"/>
      <point x="93" y="407"/>
      <point x="93" y="436" type="curve" smooth="yes"/>
      <point x="93" y="504.797"/>
      <point x="121.804" y="543.002"/>
      <point x="167" y="543.003" type="curve" smooth="yes"/>
      <point x="236.543" y="543.004"/>
      <point x="253" y="484.162"/>
      <point x="253" y="439" type="curve" smooth="yes"/>
      <point x="253" y="378.726"/>
      <point x="214" y="323"/>
      <point x="214" y="323" type="curve"/>
      <point x="248" y="305" type="line"/>
      <point x="248" y="305"/>
      <point x="290" y="367.076"/>
      <point x="290" y="439" type="curve" smooth="yes"/>
      <point x="290" y="494.625"/>
      <point x="267.959" y="575.007"/>
      <point x="168" y="575.003" type="curve" smooth="yes"/>
      <point x="104.917" y="575"/>
      <point x="56" y="529.672"/>
      <point x="56" y="436" type="curve" smooth="yes"/>
      <point x="56" y="384"/>
      <point x="83" y="333"/>
      <point x="136" y="333" type="curve" smooth="yes"/>
      <point x="185" y="333"/>
      <point x="214" y="369"/>
      <point x="214" y="436" type="curve" smooth="yes"/>
      <point x="214" y="530.27"/>
      <point x="157.742" y="545"/>
    </contour>
  </outline>
</glyph>
<glyph name="tml_MatraE" format="1">
  <advance width="611"/>
  <unicode hex="0BC6"/>
  <outline>
    <contour>
      <point x="48" y="255" type="curve" smooth="yes"/>
      <point x="48" y="324" type="line" smooth="yes"/>
      <point x="47" y="654"/>
      <point x="187" y="805"/>
      <point x="336" y="806" type="curve" smooth="yes"/>
      <point x="474" y="807"/>
      <point x="547" y="719"/>
      <point x="547" y="539" type="curve" smooth="yes"/>
      <point x="549" y="0" type="line" smooth="yes"/>
      <point x="441" y="0" type="line" smooth="yes"/>
      <point x="440" y="539" type="line" smooth="yes"/>
      <point x="440" y="643"/>
      <point x="413" y="698"/>
      <point x="332" y="698" type="curve" smooth="yes"/>
      <point x="213" y="698"/>
      <point x="152" y="490"/>
      <point x="152" y="321" type="curve" smooth="yes"/>
      <point x="152" y="298"/>
      <point x="152" y="273"/>
      <point x="152" y="250" type="curve" smooth="yes"/>
      <point x="152" y="153"/>
      <point x="170" y="69"/>
      <point x="218" y="69" type="curve" smooth="yes"/>
      <point x="264" y="69"/>
      <point x="272" y="134"/>
      <point x="272" y="173" type="curve" smooth="yes"/>
      <point x="272" y="234"/>
      <point x="245" y="266"/>
      <point x="219" y="266" type="curve" smooth="yes"/>
      <point x="179" y="266"/>
      <point x="149" y="216"/>
      <point x="161" y="142" type="curve"/>
      <point x="75" y="212" type="line"/>
      <point x="97" y="262"/>
      <point x="127" y="367"/>
      <point x="224" y="367" type="curve" smooth="yes"/>
      <point x="293" y="367"/>
      <point x="374" y="311"/>
      <point x="374" y="170" type="curve" smooth="yes"/>
      <point x="374" y="49"/>
      <point x="316" y="-29"/>
      <point x="218" y="-29" type="curve" smooth="yes"/>
      <point x="112" y="-29"/>
      <point x="48" y="91"/>
    </contour>
  </outline>
</glyph>
<glyph name="tml_MatraEe" format="1">
  <advance width="471"/>
  <unicode hex="0BC7"/>
  <outline>
    <contour>
      <point x="324" y="93" type="curve" smooth="yes"/>
      <point x="345" y="93"/>
      <point x="353" y="118"/>
      <point x="353" y="137" type="curve" smooth="yes"/>
      <point x="353" y="160"/>
      <point x="341" y="178"/>
      <point x="325" y="178" type="curve" smooth="yes"/>
      <point x="311" y="178"/>
      <point x="296" y="162"/>
      <point x="296" y="138" type="curve" smooth="yes"/>
      <point x="296" y="116"/>
      <point x="306" y="93"/>
      <point x="323" y="93" type="curve"/>
      <point x="228" y="67" type="line"/>
      <point x="216" y="94"/>
      <point x="211" y="120"/>
      <point x="211" y="143" type="curve" smooth="yes"/>
      <point x="211" y="221"/>
      <point x="272" y="269"/>
      <point x="331" y="269" type="curve" smooth="yes"/>
      <point x="400.006" y="269"/>
      <point x="450" y="224"/>
      <point x="451" y="142" type="curve" smooth="yes"/>
      <point x="452.134" y="49.002"/>
      <point x="387.003" y="-0.739258"/>
      <point x="313" y="0" type="curve" smooth="yes"/>
      <point x="168.166" y="1.44629"/>
      <point x="40.042" y="99.125"/>
      <point x="40" y="274" type="curve"/>
      <point x="41" y="448"/>
      <point x="156.001" y="558.865"/>
      <point x="313" y="560" type="curve" smooth="yes"/>
      <point x="387.005" y="560.535"/>
      <point x="452.134" y="510.998"/>
      <point x="451" y="418" type="curve" smooth="yes"/>
      <point x="450" y="336"/>
      <point x="400.006" y="291"/>
      <point x="331" y="291" type="curve" smooth="yes"/>
      <point x="272" y="291"/>
      <point x="211" y="339"/>
      <point x="211" y="417" type="curve" smooth="yes"/>
      <point x="211" y="440"/>
      <point x="216" y="466"/>
      <point x="228" y="493" type="curve"/>
      <point x="323" y="467" type="line"/>
      <point x="306" y="467"/>
      <point x="296" y="444"/>
      <point x="296" y="422" type="curve" smooth="yes"/>
      <point x="296" y="398"/>
      <point x="311" y="382"/>
      <point x="325" y="382" type="curve" smooth="yes"/>
      <point x="341" y="382"/>
      <point x="353" y="400"/>
      <point x="353" y="423" type="curve" smooth="yes"/>
      <point x="353" y="442"/>
      <point x="345" y="467"/>
      <point x="324" y="467" type="curve" smooth="yes"/>
      <point x="206.537" y="467"/>
      <point x="147.291" y="366.666"/>
      <point x="146.742" y="266" type="curve" smooth="yes"/>
      <point x="146.188" y="164.668"/>
      <point x="205.112" y="93"/>
    </contour>
  </outline>
</glyph>
<glyph name="tml_MatraO" format="1">
  <advance width="878"/>
  <unicode hex="0BCA"/>
  <outline>
    <contour>
      <point x="54" y="239" type="curve" smooth="yes"/>
      <point x="54" y="441"/>
      <point x="157" y="560"/>
      <point x="298" y="561" type="curve" smooth="yes"/>
      <point x="465.654" y="562.242"/>
      <point x="526.991" y="462.942"/>
      <point x="527.858" y="271" type="curve"/>
      <point x="530" y="0" type="line" smooth="yes"/>
      <point x="424" y="0" type="line" smooth="yes"/>
      <point x="423.312" y="271" type="line"/>
      <point x="419.765" y="406.006"/>
      <point x="395.806" y="467"/>
      <point x="298" y="467" type="curve" smooth="yes"/>
      <point x="214" y="467"/>
      <point x="153" y="370"/>
      <point x="153" y="249" type="curve" smooth="yes"/>
      <point x="153" y="155"/>
      <point x="170" y="72"/>
      <point x="217" y="72" type="curve" smooth="yes"/>
      <point x="262" y="72"/>
      <point x="270" y="135"/>
      <point x="270" y="173" type="curve" smooth="yes"/>
      <point x="270" y="232"/>
      <point x="244" y="264"/>
      <point x="218" y="264" type="curve" smooth="yes"/>
      <point x="179" y="264"/>
      <point x="151" y="215"/>
      <point x="162" y="143" type="curve"/>
      <point x="78" y="211" type="line"/>
      <point x="100" y="260"/>
      <point x="129" y="362"/>
      <point x="223" y="362" type="curve" smooth="yes"/>
      <point x="291" y="362"/>
      <point x="369" y="307"/>
      <point x="369" y="170" type="curve" smooth="yes"/>
      <point x="369" y="52"/>
      <point x="312" y="-24"/>
      <point x="217" y="-24" type="curve" smooth="yes"/>
      <point x="115" y="-24"/>
      <point x="54" y="87"/>
    </contour>
  </outline>
</glyph>
<glyph name="tml_Virama" format="1">
  <advance width="0"/>
  <unicode hex="0BCD"/>
  <outline>
    <contour>
      <point x="0" y="0" type="move" name="_tml_virama"/>
    </contour>
    <contour>
      <point x="-61" y="682" type="curve" smooth="yes"/>
      <point x="-61" y="715"/>
      <point x="-33" y="743"/>
      <point x="0" y="743" type="curve" smooth="yes"/>
      <point x="33" y="743"/>
      <point x="61" y="715"/>
      <point x="61" y="682" type="curve" smooth="yes"/>
      <point x="61" y="649"/>
      <point x="33" y="621"/>
      <point x="0" y="621" type="curve" smooth="yes"/>
      <point x="-33" y="621"/>
      <point x="-61" y="649"/>
    </contour>
  </outline>
</glyph>
<glyph name="tml_Seven" format="1">
  <advance width="606"/>
  <unicode hex="0BED"/>
  <outline>
    <contour>
      <point x="40" y="239" type="curve" smooth="yes"/>
      <point x="40" y="431"/>
      <point x="148" y="544"/>
      <point x="332" y="545" type="curve" smooth="yes"/>
      <point x="332" y="450" type="line" smooth="yes"/>
      <point x="194" y="450"/>
      <point x="139" y="361"/>
      <point x="139" y="249" type="curve" smooth="yes"/>
      <point x="139" y="155"/>
      <point x="156" y="72"/>
      <point x="203" y="72" type="curve" smooth="yes"/>
      <point x="248" y="72"/>
      <point x="256" y="135"/>
      <point x="256" y="173" type="curve" smooth="yes"/>
      <point x="256" y="232"/>
      <point x="230" y="264"/>
      <point x="204" y="264" type="curve" smooth="yes"/>
      <point x="165" y="264"/>
      <point x="137" y="215"/>
      <point x="148" y="143" type="curve"/>
      <point x="64" y="211" type="line"/>
      <point x="86" y="260"/>
      <point x="115" y="362"/>
      <point x="209" y="362" type="curve" smooth="yes"/>
      <point x="277" y="362"/>
      <point x="355" y="307"/>
      <point x="355" y="170" type="curve" smooth="yes"/>
      <point x="355" y="52"/>
      <point x="298" y="-24"/>
      <point x="203" y="-24" type="curve" smooth="yes"/>
      <point x="101" y="-24"/>
      <point x="40" y="87"/>
    </contour>
    <contour>
      <point x="318" y="450" type="line"/>
      <point x="328" y="545" type="line"/>
      <point x="536" y="545" type="line"/>
      <point x="536" y="450" type="line"/>
      <point x="536" y="450" type="line"/>
      <point x="536" y="0" type="line"/>
      <point x="431" y="0" type="line"/>
      <point x="431" y="450" type="line"/>
    </contour>
  </outline>
</glyph>
<glyph name="tml_Day" format="1">
  <advance width="622"/>
  <unicode hex="0BF3"/>
  <outline>
    <contour>
      <point x="413" y="1" type="move" name="tml_virama"/>
    </contour>
    <contour>
      <point x="40" y="239" type="curve" smooth="yes"/>
      <point x="40" y="441"/>
      <point x="130" y="560"/>
      <point x="283" y="561" type="curve" smooth="yes"/>
      <point x="417" y="562"/>
      <point x="512" y="437"/>
      <point x="512" y="258" type="curve" smooth="yes"/>
      <point x="512" y="116"/>
      <point x="468" y="57"/>
      <point x="468" y="57" type="curve"/>
      <point x="380" y="79" type="line"/>
      <point x="396" y="118"/>
      <point x="410" y="167"/>
      <point x="410" y="256" type="curve" smooth="yes"/>
      <point x="410" y="383"/>
      <point x="360" y="467"/>
      <point x="283" y="467" type="curve" smooth="yes"/>
      <point x="186" y="467"/>
      <point x="139" y="370"/>
      <point x="139" y="249" type="curve" smooth="yes"/>
      <point x="139" y="155"/>
      <point x="156" y="72"/>
      <point x="203" y="72" type="curve" smooth="yes"/>
      <point x="248" y="72"/>
      <point x="256" y="135"/>
      <point x="256" y="173" type="curve" smooth="yes"/>
      <point x="256" y="232"/>
      <point x="229" y="264"/>
      <point x="203" y="264" type="curve" smooth="yes"/>
      <point x="165" y="264"/>
      <point x="137" y="215"/>
      <point x="148" y="143" type="curve"/>
      <point x="64" y="211" type="line"/>
      <point x="86" y="260"/>
      <point x="115" y="362"/>
      <point x="208" y="362" type="curve" smooth="yes"/>
      <point x="276" y="362"/>
      <point x="355" y="307"/>
      <point x="355" y="170" type="curve" smooth="yes"/>
      <point x="355" y="52"/>
      <point x="298" y="-24"/>
      <point x="203" y="-24" type="curve" smooth="yes"/>
      <point x="101" y="-24"/>
      <point x="40" y="87"/>
    </contour>
    <contour>
      <point x="380" y="79" type="line"/>
      <point x="485" y="95" type="line"/>
      <point x="597" y="95" type="line"/>
      <point x="597" y="0" type="line"/>
      <point x="381" y="0" type="line"/>
    </contour>
  </outline>
</glyph>
<glyph name="NameMe.13" format="1">
  <advance width="533"/>
  <outline>
    <contour>
      <point x="25" y="252.396" type="curve" smooth="yes"/>
      <point x="25" y="395.891"/>
      <point x="104.823" y="471.313"/>
      <point x="195.132" y="471.313" type="curve" smooth="yes"/>
      <point x="228" y="471.313"/>
      <point x="251.494" y="461.571"/>
      <point x="274.865" y="445.258" type="curve"/>
      <point x="237" y="345" type="line"/>
      <point x="211" y="360"/>
      <point x="169.704" y="369.713"/>
      <point x="147.467" y="320.268" type="curve" smooth="yes"/>
      <point x="139.834" y="303.296"/>
      <point x="135" y="280.558"/>
      <point x="135" y="252.396" type="curve" smooth="yes"/>
      <point x="135" y="168.213"/>
      <point x="190.606" y="115.115"/>
      <point x="244.146" y="115.115" type="curve" smooth="yes"/>
      <point x="349.256" y="115.115"/>
      <point x="388.884" y="244.619"/>
      <point x="388.884" y="377.396" type="curve" smooth="yes"/>
      <point x="388.884" y="510.438"/>
      <point x="350.514" y="639.668"/>
      <point x="247.715" y="639.668" type="curve" smooth="yes"/>
      <point x="180.079" y="639.668"/>
      <point x="147.518" y="588.381"/>
      <point x="137.843" y="550.755" type="curve" smooth="yes"/>
      <point x="136.474" y="545.431" type="line"/>
      <point x="30.373" y="583.721" type="line"/>
      <point x="31.9365" y="588.359" type="line" smooth="yes"/>
      <point x="57.4131" y="663.914"/>
      <point x="112.784" y="754.783"/>
      <point x="247.715" y="754.783" type="curve" smooth="yes"/>
      <point x="482.872" y="754.783"/>
      <point x="503" y="488.815"/>
      <point x="503" y="377.396" type="curve" smooth="yes"/>
      <point x="503" y="265.67"/>
      <point x="479.324" y="0"/>
      <point x="244.146" y="0" type="curve" smooth="yes"/>
      <point x="92.2744" y="0"/>
      <point x="25" y="136.287"/>
    </contour>
  </outline>
</glyph>
<glyph name="tml_TtI" format="1">
  <advance width="647"/>
  <outline>
    <contour>
      <point x="428" y="15" type="line" smooth="yes"/>
      <point x="300.966" y="17"/>
      <point x="219.04" y="142.33"/>
      <point x="219" y="319" type="curve" smooth="yes"/>
      <point x="218.966" y="471.299"/>
      <point x="265.473" y="572.445"/>
      <point x="386" y="573" type="curve" smooth="yes"/>
      <point x="477.084" y="573.419"/>
      <point x="561.177" y="515.997"/>
      <point x="562" y="336" type="curve" smooth="yes"/>
      <point x="564" y="-146" type="line" smooth="yes"/>
      <point x="456" y="-146" type="line" smooth="yes"/>
      <point x="455" y="336" type="line" smooth="yes"/>
      <point x="454.742" y="440"/>
      <point x="432" y="475"/>
      <point x="386" y="475" type="curve" smooth="yes"/>
      <point x="344.804" y="475"/>
      <point x="316.776" y="416.767"/>
      <point x="317" y="319" type="curve" smooth="yes"/>
      <point x="317.297" y="188.958"/>
      <point x="371" y="98"/>
      <point x="444.303" y="98" type="curve" smooth="yes"/>
    </contour>
    <component base="tml_Tta"/>
  </outline>
</glyph>
